<svg width="150" height="92" viewBox="0 0 150 92" fill="none" xmlns="http://www.w3.org/2000/svg">
<path fill-rule="evenodd" clip-rule="evenodd" d="M143.713 13.4731C147.185 13.4731 150 16.2881 150 19.7605C150 23.233 147.185 26.0479 143.713 26.0479H107.784C111.257 26.0479 114.072 28.8629 114.072 32.3354C114.072 35.8078 111.257 38.6228 107.784 38.6228H127.545C131.017 38.6228 133.832 41.4378 133.832 44.9102C133.832 48.3827 131.017 51.1976 127.545 51.1976H118.407C114.028 51.1976 110.479 54.0126 110.479 57.4851C110.479 59.8 112.275 61.8958 115.868 63.7725C119.341 63.7725 122.156 66.5875 122.156 70.0599C122.156 73.5324 119.341 76.3473 115.868 76.3473H41.3174C37.8449 76.3473 35.0299 73.5324 35.0299 70.0599C35.0299 66.5875 37.8449 63.7725 41.3174 63.7725H6.28743C2.81498 63.7725 0 60.9575 0 57.4851C0 54.0126 2.81498 51.1976 6.28743 51.1976H42.2156C45.688 51.1976 48.503 48.3827 48.503 44.9102C48.503 41.4378 45.688 38.6228 42.2156 38.6228H19.7605C16.288 38.6228 13.4731 35.8078 13.4731 32.3354C13.4731 28.8629 16.288 26.0479 19.7605 26.0479H55.6886C52.2162 26.0479 49.4012 23.233 49.4012 19.7605C49.4012 16.2881 52.2162 13.4731 55.6886 13.4731H143.713ZM143.713 38.6228C147.185 38.6228 150 41.4378 150 44.9102C150 48.3827 147.185 51.1976 143.713 51.1976C140.24 51.1976 137.425 48.3827 137.425 44.9102C137.425 41.4378 140.24 38.6228 143.713 38.6228Z" fill="#F3F7FF"/>
<path fill-rule="evenodd" clip-rule="evenodd" d="M95.8115 12.5748L104.166 73.5114L104.917 79.6249C105.159 81.5943 103.758 83.3869 101.789 83.6287L49.1899 90.0871C47.2205 90.3289 45.4279 88.9284 45.1861 86.9589L37.0881 21.006C36.9672 20.0213 37.6674 19.125 38.6522 19.0041C38.6584 19.0033 38.6646 19.0026 38.6708 19.0019L43.0346 18.5124M46.5629 18.1166L50.683 17.6544L46.5629 18.1166Z" fill="white"/>
<path d="M96.9239 12.4223C96.8396 11.808 96.2733 11.3782 95.659 11.4625C95.0447 11.5467 94.6149 12.113 94.6992 12.7273L96.9239 12.4223ZM104.166 73.5114L105.281 73.3746C105.28 73.3693 105.28 73.3641 105.279 73.3589L104.166 73.5114ZM104.917 79.6249L106.032 79.488L104.917 79.6249ZM101.789 83.6287L101.926 84.7431L101.789 83.6287ZM49.1899 90.0871L49.3268 91.2015L49.1899 90.0871ZM45.1861 86.9589L46.3004 86.8221L45.1861 86.9589ZM38.6708 19.0019L38.796 20.1177L38.6708 19.0019ZM43.1598 19.6282C43.776 19.559 44.2195 19.0035 44.1504 18.3872C44.0813 17.771 43.5257 17.3275 42.9095 17.3966L43.1598 19.6282ZM46.4377 17.0008C45.8215 17.07 45.378 17.6255 45.4471 18.2417C45.5162 18.858 46.0718 19.3015 46.688 19.2323L46.4377 17.0008ZM50.8081 18.7702C51.4244 18.701 51.8679 18.1455 51.7987 17.5293C51.7296 16.913 51.174 16.4695 50.5578 16.5387L50.8081 18.7702ZM94.6992 12.7273L103.054 73.6639L105.279 73.3589L96.9239 12.4223L94.6992 12.7273ZM103.052 73.6482L103.803 79.7617L106.032 79.488L105.281 73.3746L103.052 73.6482ZM103.803 79.7617C103.969 81.1157 103.006 82.3481 101.652 82.5144L101.926 84.7431C104.511 84.4257 106.349 82.073 106.032 79.488L103.803 79.7617ZM101.652 82.5144L49.0531 88.9727L49.3268 91.2015L101.926 84.7431L101.652 82.5144ZM49.0531 88.9727C47.6991 89.139 46.4667 88.1761 46.3004 86.8221L44.0717 87.0957C44.3891 89.6807 46.7419 91.5189 49.3268 91.2015L49.0531 88.9727ZM46.3004 86.8221L38.2025 20.8692L35.9737 21.1429L44.0717 87.0957L46.3004 86.8221ZM38.2025 20.8692C38.1571 20.4999 38.4197 20.1638 38.789 20.1185L38.5153 17.8897C36.9151 18.0862 35.7772 19.5427 35.9737 21.1429L38.2025 20.8692ZM38.789 20.1185C38.7913 20.1182 38.7937 20.1179 38.796 20.1177L38.5457 17.8861C38.5356 17.8873 38.5254 17.8885 38.5153 17.8897L38.789 20.1185ZM38.796 20.1177L43.1598 19.6282L42.9095 17.3966L38.5457 17.8861L38.796 20.1177ZM46.688 19.2323L50.8081 18.7702L50.5578 16.5387L46.4377 17.0008L46.688 19.2323Z" fill="#F9C20A"/>
<path fill-rule="evenodd" clip-rule="evenodd" d="M93.5395 16.4094L101.102 71.6343L101.782 77.1746C102.001 78.9594 100.749 80.5819 98.9856 80.7984L51.882 86.582C50.1183 86.7986 48.5109 85.5273 48.2917 83.7424L40.9714 24.1228C40.8505 23.1381 41.5507 22.2418 42.5355 22.1209L48.3626 21.4054" fill="#1D4A7B" fill-opacity="0.2"/>
<path d="M54.7204 3.59281C54.7204 2.22863 55.8263 1.12275 57.1905 1.12275H98.1097C98.7646 1.12275 99.3926 1.38278 99.8558 1.84568L111.931 13.913C112.394 14.3762 112.655 15.0047 112.655 15.6601V71.8563C112.655 73.2205 111.549 74.3263 110.184 74.3263H57.1905C55.8263 74.3263 54.7204 73.2205 54.7204 71.8563V3.59281Z" fill="white" stroke="#F9C20A" stroke-width="2.24551"/>
<path d="M98.5078 2.15826V12.5749C98.5078 14.0631 99.7142 15.2695 101.202 15.2695H108.328" stroke="#F9C20A" stroke-width="2.24551" stroke-linecap="round" stroke-linejoin="round"/>
<path d="M63.7725 61.0779H87.1258M63.7725 15.2695H87.1258H63.7725ZM63.7725 26.0479H102.395H63.7725ZM63.7725 37.7246H102.395H63.7725ZM63.7725 49.4012H102.395H63.7725Z" stroke="#1D4A7B" stroke-opacity="0.2" stroke-width="2.24551" stroke-linecap="round" stroke-linejoin="round"/>
</svg>
