<svg width="366" height="140" viewBox="0 0 366 140" fill="none" xmlns="http://www.w3.org/2000/svg">
<path d="M310.576 140H0L54.4256 133H366L310.576 140Z" fill="#231F20"/>
<path d="M45.4545 30C45.5909 28.5 45.2273 27.3258 44.3636 26.4773C43.5 25.6136 42.0455 25.1818 40 25.1818C38.697 25.1818 37.6061 25.3333 36.7273 25.6364C35.8636 25.9394 35.1894 26.3561 34.7045 26.8864C34.2348 27.4167 33.9394 28.0303 33.8182 28.7273C33.6818 29.2727 33.6894 29.7727 33.8409 30.2273C34.0076 30.6667 34.3182 31.0682 34.7727 31.4318C35.2424 31.7955 35.8561 32.1212 36.6136 32.4091C37.3864 32.697 38.303 32.9545 39.3636 33.1818L43 34C45.4848 34.5455 47.5682 35.2652 49.25 36.1591C50.947 37.0379 52.2803 38.0833 53.25 39.2955C54.2197 40.5076 54.8561 41.8636 55.1591 43.3636C55.4773 44.8636 55.4848 46.5 55.1818 48.2727C54.6667 51.3333 53.4773 53.9242 51.6136 56.0455C49.75 58.1667 47.3182 59.7803 44.3182 60.8864C41.3182 61.9924 37.8485 62.5455 33.9091 62.5455C29.8788 62.5455 26.4545 61.947 23.6364 60.75C20.8333 59.5379 18.803 57.6894 17.5455 55.2045C16.303 52.7045 16 49.5152 16.6364 45.6364H28.6364C28.4545 47.0606 28.6061 48.2576 29.0909 49.2273C29.5758 50.197 30.3561 50.9318 31.4318 51.4318C32.5076 51.9318 33.8485 52.1818 35.4545 52.1818C36.8182 52.1818 37.9848 52.0152 38.9545 51.6818C39.9242 51.3485 40.6894 50.8864 41.25 50.2955C41.8106 49.7045 42.1515 49.0303 42.2727 48.2727C42.3939 47.5758 42.2727 46.9545 41.9091 46.4091C41.5455 45.8636 40.8864 45.3712 39.9318 44.9318C38.9773 44.4924 37.6667 44.0909 36 43.7273L31.5455 42.7273C27.5909 41.8182 24.6061 40.3182 22.5909 38.2273C20.5758 36.1364 19.8636 33.2727 20.4545 29.6364C20.9394 26.6667 22.1591 24.0758 24.1136 21.8636C26.0833 19.6364 28.5833 17.9091 31.6136 16.6818C34.6591 15.4394 38.0303 14.8182 41.7273 14.8182C45.4848 14.8182 48.6288 15.447 51.1591 16.7045C53.7045 17.9621 55.5303 19.7273 56.6364 22C57.7576 24.2727 58.0606 26.9394 57.5455 30H45.4545ZM112.934 39.5455C112.086 44.6061 110.404 48.8485 107.889 52.2727C105.373 55.697 102.32 58.2803 98.7295 60.0227C95.1386 61.7652 91.2977 62.6364 87.2068 62.6364C82.8432 62.6364 79.0553 61.6894 75.8432 59.7955C72.6311 57.9015 70.2902 55.1288 68.8205 51.4773C67.3508 47.8258 67.0553 43.3636 67.9341 38.0909C68.7523 33.0303 70.4189 28.7727 72.9341 25.3182C75.4492 21.8636 78.5174 19.25 82.1386 17.4773C85.7599 15.7045 89.6311 14.8182 93.7523 14.8182C98.0856 14.8182 101.851 15.7727 105.048 17.6818C108.26 19.5909 110.593 22.3864 112.048 26.0682C113.517 29.75 113.813 34.2424 112.934 39.5455ZM100.207 38.0909C100.631 35.4242 100.661 33.1818 100.298 31.3636C99.9341 29.5303 99.1689 28.1515 98.0023 27.2273C96.8356 26.2879 95.2674 25.8182 93.2977 25.8182C91.0553 25.8182 89.0705 26.3636 87.3432 27.4545C85.6159 28.5455 84.1841 30.1136 83.0477 32.1591C81.9114 34.2045 81.1159 36.6667 80.6614 39.5455C80.1765 42.2424 80.1311 44.4848 80.525 46.2727C80.9341 48.0606 81.7371 49.4015 82.9341 50.2955C84.1462 51.1894 85.722 51.6364 87.6614 51.6364C89.8735 51.6364 91.828 51.1061 93.525 50.0455C95.2371 48.9848 96.6538 47.447 97.775 45.4318C98.9114 43.4167 99.722 40.9697 100.207 38.0909ZM121.453 62L129.181 15.4545H141.817L135.817 51.8182H154.635L152.908 62H121.453ZM184.78 15.4545L177.052 62H164.416L172.143 15.4545H184.78ZM197.168 15.4545H212.895L219.35 41.8182H219.895L235.077 15.4545H250.805L243.077 62H230.714L235.168 35.0909H234.805L220.077 61.6364H212.623L206.714 34.9091H206.35L201.805 62H189.441L197.168 15.4545ZM290.739 15.4545H303.375L298.42 45.2727C297.845 48.8182 296.496 51.8864 294.375 54.4773C292.269 57.053 289.587 59.0455 286.33 60.4545C283.072 61.8485 279.451 62.5455 275.466 62.5455C271.451 62.5455 268.057 61.8485 265.284 60.4545C262.511 59.0455 260.496 57.053 259.239 54.4773C257.996 51.8864 257.663 48.8182 258.239 45.2727L263.193 15.4545H275.83L271.057 44.1818C270.83 45.6212 270.943 46.9015 271.398 48.0227C271.852 49.1439 272.587 50.0303 273.602 50.6818C274.617 51.3182 275.845 51.6364 277.284 51.6364C278.739 51.6364 280.08 51.3182 281.307 50.6818C282.549 50.0303 283.58 49.1439 284.398 48.0227C285.216 46.9015 285.739 45.6212 285.966 44.1818L290.739 15.4545ZM338.417 30C338.553 28.5 338.19 27.3258 337.326 26.4773C336.462 25.6136 335.008 25.1818 332.962 25.1818C331.659 25.1818 330.569 25.3333 329.69 25.6364C328.826 25.9394 328.152 26.3561 327.667 26.8864C327.197 27.4167 326.902 28.0303 326.781 28.7273C326.644 29.2727 326.652 29.7727 326.803 30.2273C326.97 30.6667 327.281 31.0682 327.735 31.4318C328.205 31.7955 328.819 32.1212 329.576 32.4091C330.349 32.697 331.266 32.9545 332.326 33.1818L335.962 34C338.447 34.5455 340.531 35.2652 342.212 36.1591C343.909 37.0379 345.243 38.0833 346.212 39.2955C347.182 40.5076 347.819 41.8636 348.122 43.3636C348.44 44.8636 348.447 46.5 348.144 48.2727C347.629 51.3333 346.44 53.9242 344.576 56.0455C342.712 58.1667 340.281 59.7803 337.281 60.8864C334.281 61.9924 330.811 62.5455 326.872 62.5455C322.841 62.5455 319.417 61.947 316.599 60.75C313.796 59.5379 311.766 57.6894 310.508 55.2045C309.266 52.7045 308.962 49.5152 309.599 45.6364H321.599C321.417 47.0606 321.569 48.2576 322.053 49.2273C322.538 50.197 323.319 50.9318 324.394 51.4318C325.47 51.9318 326.811 52.1818 328.417 52.1818C329.781 52.1818 330.947 52.0152 331.917 51.6818C332.887 51.3485 333.652 50.8864 334.212 50.2955C334.773 49.7045 335.114 49.0303 335.235 48.2727C335.356 47.5758 335.235 46.9545 334.872 46.4091C334.508 45.8636 333.849 45.3712 332.894 44.9318C331.94 44.4924 330.629 44.0909 328.962 43.7273L324.508 42.7273C320.553 41.8182 317.569 40.3182 315.553 38.2273C313.538 36.1364 312.826 33.2727 313.417 29.6364C313.902 26.6667 315.122 24.0758 317.076 21.8636C319.046 19.6364 321.546 17.9091 324.576 16.6818C327.622 15.4394 330.993 14.8182 334.69 14.8182C338.447 14.8182 341.591 15.447 344.122 16.7045C346.667 17.9621 348.493 19.7273 349.599 22C350.72 24.2727 351.023 26.9394 350.508 30H338.417Z" fill="#231F20"/>
<path d="M51.5341 112L55.8807 85.8182H71.6818L71.2216 88.6307H58.5909L57.108 97.4773H68.9205L68.4602 100.29H56.6477L55.1648 109.188H68L67.5398 112H51.5341ZM78.7974 112.205C78.1497 112.205 77.6085 111.983 77.1739 111.54C76.7392 111.088 76.5134 110.543 76.4963 109.903C76.4878 109.264 76.7136 108.732 77.1739 108.305C77.6341 107.871 78.1753 107.653 78.7974 107.653C79.4281 107.653 79.9736 107.875 80.4338 108.318C80.894 108.761 81.1156 109.29 81.0986 109.903C81.0901 110.33 80.9793 110.717 80.7662 111.067C80.5616 111.416 80.2847 111.693 79.9352 111.898C79.5943 112.102 79.2151 112.205 78.7974 112.205ZM97.6808 85.8182L93.3342 112H90.1638L94.5104 85.8182H97.6808ZM107.638 85.8182H111.422L116.74 107.551H117.047L129.524 85.8182H133.308L128.962 112H125.996L129.32 92.108H129.064L117.558 112H114.695L109.837 92.108H109.581L106.257 112H103.291L107.638 85.8182ZM143.265 85.8182H147.049L152.367 107.551H152.674L165.151 85.8182H168.936L164.589 112H161.623L164.947 92.108H164.691L153.186 112H150.322L145.464 92.108H145.208L141.884 112H138.918L143.265 85.8182ZM198.784 99.1136C198.324 101.841 197.442 104.197 196.138 106.183C194.834 108.161 193.24 109.686 191.357 110.76C189.473 111.825 187.432 112.358 185.233 112.358C182.966 112.358 181.036 111.804 179.442 110.696C177.857 109.58 176.723 108.003 176.042 105.966C175.368 103.92 175.262 101.5 175.722 98.7045C176.182 95.9773 177.064 93.625 178.368 91.6477C179.672 89.6619 181.27 88.1364 183.162 87.071C185.054 85.9972 187.108 85.4602 189.324 85.4602C191.574 85.4602 193.488 86.0185 195.064 87.1349C196.65 88.2429 197.779 89.8196 198.452 91.8651C199.134 93.902 199.245 96.3182 198.784 99.1136ZM195.767 98.7045C196.142 96.4716 196.087 94.5923 195.601 93.0668C195.115 91.5412 194.31 90.3864 193.185 89.6023C192.06 88.8182 190.722 88.4261 189.171 88.4261C187.551 88.4261 186.017 88.8395 184.569 89.6662C183.12 90.4844 181.88 91.6903 180.848 93.2841C179.817 94.8693 179.114 96.8125 178.739 99.1136C178.364 101.347 178.419 103.226 178.905 104.751C179.391 106.277 180.196 107.432 181.321 108.216C182.446 109 183.784 109.392 185.336 109.392C186.955 109.392 188.489 108.983 189.938 108.165C191.387 107.338 192.627 106.132 193.658 104.547C194.689 102.953 195.392 101.006 195.767 98.7045ZM224.713 85.8182L228.855 107.858H229.162L240.565 85.8182H243.889L229.929 112H226.656L221.389 85.8182H224.713ZM247.221 112L251.567 85.8182H267.369L266.908 88.6307H254.278L252.795 97.4773H264.607L264.147 100.29H252.334L250.851 109.188H263.687L263.226 112H247.221ZM272.336 112L276.683 85.8182H292.382L291.922 88.6307H279.393L277.91 97.4773H289.263L288.802 100.29H277.45L275.507 112H272.336ZM294.87 112H291.546L305.506 85.8182H308.779L314.046 112H310.722L306.58 89.9602H306.375L294.87 112ZM297.784 101.773H311.182L310.722 104.585H297.324L297.784 101.773Z" fill="#231F20"/>
</svg>
