<?xml version="1.0" encoding="utf-8"?>
<!-- Generator: Adobe Illustrator 27.6.1, SVG Export Plug-In . SVG Version: 6.00 Build 0)  -->
<svg version="1.1" id="Calque_1" xmlns="http://www.w3.org/2000/svg" xmlns:xlink="http://www.w3.org/1999/xlink" x="0px" y="0px"
	 viewBox="0 0 366 140" style="enable-background:new 0 0 366 140;" xml:space="preserve">
<style type="text/css">
	.st0{fill:#FFFFFF;}
</style>
<g>
	<path class="st0" d="M310.6,132.6H0l54.4-7H366L310.6,132.6z"/>
	<path class="st0" d="M44.9,22.6c0.1-1.5-0.2-2.7-1.1-3.5c-0.9-0.9-2.3-1.3-4.4-1.3c-1.3,0-2.4,0.2-3.3,0.5c-0.9,0.3-1.5,0.7-2,1.2
		c-0.5,0.5-0.8,1.1-0.9,1.8c-0.1,0.5-0.1,1,0,1.5c0.2,0.4,0.5,0.8,0.9,1.2c0.5,0.4,1.1,0.7,1.8,1c0.8,0.3,1.7,0.5,2.8,0.8l3.6,0.8
		c2.5,0.5,4.6,1.3,6.2,2.2c1.7,0.9,3,1.9,4,3.1c1,1.2,1.6,2.6,1.9,4.1c0.3,1.5,0.3,3.1,0,4.9c-0.5,3.1-1.7,5.7-3.6,7.8
		c-1.9,2.1-4.3,3.7-7.3,4.8c-3,1.1-6.5,1.7-10.4,1.7c-4,0-7.5-0.6-10.3-1.8c-2.8-1.2-4.8-3.1-6.1-5.5c-1.2-2.5-1.5-5.7-0.9-9.6h12
		c-0.2,1.4,0,2.6,0.5,3.6c0.5,1,1.3,1.7,2.3,2.2c1.1,0.5,2.4,0.8,4,0.8c1.4,0,2.5-0.2,3.5-0.5c1-0.3,1.7-0.8,2.3-1.4
		c0.6-0.6,0.9-1.3,1-2c0.1-0.7,0-1.3-0.4-1.9c-0.4-0.5-1-1-2-1.5c-1-0.4-2.3-0.8-3.9-1.2l-4.5-1c-4-0.9-6.9-2.4-9-4.5
		c-2-2.1-2.7-5-2.1-8.6c0.5-3,1.7-5.6,3.7-7.8c2-2.2,4.5-4,7.5-5.2c3-1.2,6.4-1.9,10.1-1.9c3.8,0,6.9,0.6,9.4,1.9
		c2.5,1.3,4.4,3,5.5,5.3c1.1,2.3,1.4,4.9,0.9,8H44.9z M112.4,32.1c-0.8,5.1-2.5,9.3-5,12.7c-2.5,3.4-5.6,6-9.2,7.8
		c-3.6,1.7-7.4,2.6-11.5,2.6c-4.4,0-8.2-0.9-11.4-2.8c-3.2-1.9-5.6-4.7-7-8.3c-1.5-3.7-1.8-8.1-0.9-13.4c0.8-5.1,2.5-9.3,5-12.8
		c2.5-3.5,5.6-6.1,9.2-7.8c3.6-1.8,7.5-2.7,11.6-2.7c4.3,0,8.1,1,11.3,2.9c3.2,1.9,5.5,4.7,7,8.4C113,22.3,113.3,26.8,112.4,32.1z
		 M99.7,30.7c0.4-2.7,0.5-4.9,0.1-6.7c-0.4-1.8-1.1-3.2-2.3-4.1c-1.2-0.9-2.7-1.4-4.7-1.4c-2.2,0-4.2,0.5-6,1.6
		c-1.7,1.1-3.2,2.7-4.3,4.7c-1.1,2-1.9,4.5-2.4,7.4c-0.5,2.7-0.5,4.9-0.1,6.7c0.4,1.8,1.2,3.1,2.4,4c1.2,0.9,2.8,1.3,4.7,1.3
		c2.2,0,4.2-0.5,5.9-1.6c1.7-1.1,3.1-2.6,4.2-4.6C98.4,36,99.2,33.6,99.7,30.7z M120.9,54.6L128.6,8h12.6l-6,36.4h18.8l-1.7,10.2
		H120.9z M184.2,8l-7.7,46.5h-12.6L171.6,8H184.2z M196.6,8h15.7l6.5,26.4h0.5L234.5,8h15.7l-7.7,46.5h-12.4l4.5-26.9h-0.4
		l-14.7,26.5h-7.5l-5.9-26.7h-0.4l-4.5,27.1h-12.4L196.6,8z M290.2,8h12.6l-5,29.8c-0.6,3.5-1.9,6.6-4,9.2c-2.1,2.6-4.8,4.6-8,6
		c-3.3,1.4-6.9,2.1-10.9,2.1c-4,0-7.4-0.7-10.2-2.1c-2.8-1.4-4.8-3.4-6-6c-1.2-2.6-1.6-5.7-1-9.2l5-29.8h12.6l-4.8,28.7
		c-0.2,1.4-0.1,2.7,0.3,3.8c0.5,1.1,1.2,2,2.2,2.7c1,0.6,2.2,1,3.7,1c1.5,0,2.8-0.3,4-1c1.2-0.7,2.3-1.5,3.1-2.7
		c0.8-1.1,1.3-2.4,1.6-3.8L290.2,8z M337.9,22.6c0.1-1.5-0.2-2.7-1.1-3.5c-0.9-0.9-2.3-1.3-4.4-1.3c-1.3,0-2.4,0.2-3.3,0.5
		c-0.9,0.3-1.5,0.7-2,1.2c-0.5,0.5-0.8,1.1-0.9,1.8c-0.1,0.5-0.1,1,0,1.5c0.2,0.4,0.5,0.8,0.9,1.2c0.5,0.4,1.1,0.7,1.8,1
		c0.8,0.3,1.7,0.5,2.8,0.8l3.6,0.8c2.5,0.5,4.6,1.3,6.2,2.2c1.7,0.9,3,1.9,4,3.1c1,1.2,1.6,2.6,1.9,4.1c0.3,1.5,0.3,3.1,0,4.9
		c-0.5,3.1-1.7,5.7-3.6,7.8c-1.9,2.1-4.3,3.7-7.3,4.8c-3,1.1-6.5,1.7-10.4,1.7c-4,0-7.5-0.6-10.3-1.8c-2.8-1.2-4.8-3.1-6.1-5.5
		c-1.2-2.5-1.5-5.7-0.9-9.6h12c-0.2,1.4,0,2.6,0.5,3.6c0.5,1,1.3,1.7,2.3,2.2c1.1,0.5,2.4,0.8,4,0.8c1.4,0,2.5-0.2,3.5-0.5
		c1-0.3,1.7-0.8,2.3-1.4c0.6-0.6,0.9-1.3,1-2c0.1-0.7,0-1.3-0.4-1.9c-0.4-0.5-1-1-2-1.5c-1-0.4-2.3-0.8-3.9-1.2l-4.5-1
		c-4-0.9-6.9-2.4-9-4.5c-2-2.1-2.7-5-2.1-8.6c0.5-3,1.7-5.6,3.7-7.8c2-2.2,4.5-4,7.5-5.2c3-1.2,6.4-1.9,10.1-1.9
		c3.8,0,6.9,0.6,9.4,1.9c2.5,1.3,4.4,3,5.5,5.3c1.1,2.3,1.4,4.9,0.9,8H337.9z"/>
	<g>
		<path class="st0" d="M42.6,75.8h17.5L59.6,79h-14l-1.6,9.8H57l-0.5,3.1H43.4l-1.6,9.9H56l-0.5,3.1H37.8L42.6,75.8z"/>
		<path class="st0" d="M72.9,102.6c0-1.4,1.2-2.5,2.6-2.5c1.4,0,2.6,1.1,2.6,2.5c0,1.4-1.2,2.6-2.6,2.6C74,105.1,73,104,72.9,102.6z
			"/>
		<path class="st0" d="M99.1,104.9h-3.5l4.8-29h3.5L99.1,104.9z"/>
		<path class="st0" d="M115.6,75.8l5.9,24.1h0.3l13.8-24.1h4.2l-4.8,29h-3.3l3.7-22.1h-0.3l-12.8,22.1h-3.2l-5.4-22.1h-0.3
			l-3.7,22.1h-3.3l4.8-29H115.6z"/>
		<path class="st0" d="M151.6,75.8l5.9,24.1h0.3l13.8-24.1h4.2l-4.8,29h-3.3l3.7-22.1h-0.3l-12.8,22.1h-3.2l-5.4-22.1h-0.3
			l-3.7,22.1h-3.3l4.8-29H151.6z"/>
		<path class="st0" d="M190.3,105.3c-7.5,0-12.1-5.8-10.5-15.1c1.5-9.1,7.7-14.7,15.1-14.7c7.5,0,12,5.8,10.5,15.1
			C203.8,99.7,197.7,105.3,190.3,105.3z M194.7,78.7c-5.4,0-10.3,4.2-11.6,11.9c-1.2,7.4,2.2,11.4,7.3,11.4
			c5.4,0,10.3-4.2,11.6-11.9C203.3,82.7,199.9,78.7,194.7,78.7z"/>
		<path class="st0" d="M214.2,75.8h10.1c6.1,0,8.3,3.5,7.6,7.7c-0.6,3.7-3.1,5.4-5.7,6.1l-0.1,0.3c2.6,0.2,5.4,2.7,4.6,7.3
			c-0.7,4.4-4.1,7.7-11,7.7h-10.5L214.2,75.8z M220.4,101.8c4.6,0,6.7-2,7.1-4.6c0.5-2.9-1.5-5.5-5.3-5.5h-7.1l-1.7,10.1H220.4z
			 M222.1,88.6c3.2,0,6-2,6.5-5c0.5-2.6-0.9-4.6-4.8-4.6h-6.6l-1.6,9.6H222.1z"/>
		<path class="st0" d="M239.3,104.9h-3.5l4.8-29h3.5L239.3,104.9z"/>
		<path class="st0" d="M251.6,75.8h3.5l-4.3,25.9h13.5l-0.5,3.1h-17L251.6,75.8z"/>
		<path class="st0" d="M273.2,104.9h-3.5l4.8-29h3.5L273.2,104.9z"/>
		<path class="st0" d="M285.5,75.8h17.5l-0.5,3.1h-14l-1.6,9.8H300l-0.5,3.1h-13.1l-1.6,9.9H299l-0.5,3.1h-17.7L285.5,75.8z"/>
		<path class="st0" d="M309.9,75.8h9.8c6.8,0,9.2,3.7,8.4,8.9c-0.6,3.8-2.9,6.9-6.8,8.1l4.6,12h-4.1l-4.3-11.4c-0.2,0-0.5,0-0.7,0
			h-6.3l-1.9,11.3h-3.5L309.9,75.8z M317.2,90.4c4.6,0,6.8-2.2,7.4-5.6c0.6-3.5-0.9-5.8-5.6-5.8h-6.2L311,90.4H317.2z"/>
	</g>
</g>
</svg>
