<svg width="48" height="48" viewBox="0 0 48 48" fill="none" xmlns="http://www.w3.org/2000/svg">
<path d="M10 40.9999C8.14348 40.9999 6.36301 40.2624 5.05025 38.9496C3.7375 37.6369 3 35.8564 3 33.9999C3 32.1434 3.7375 30.3629 5.05025 29.0502C6.36301 27.7374 8.14348 26.9999 10 26.9999C11.8565 26.9999 13.637 27.7374 14.9497 29.0502C16.2625 30.3629 17 32.1434 17 33.9999C17 35.8564 16.2625 37.6369 14.9497 38.9496C13.637 40.2624 11.8565 40.9999 10 40.9999ZM10 23.9999C7.34784 23.9999 4.8043 25.0535 2.92893 26.9288C1.05357 28.8042 0 31.3477 0 33.9999C0 36.6521 1.05357 39.1956 2.92893 41.071C4.8043 42.9463 7.34784 43.9999 10 43.9999C12.6522 43.9999 15.1957 42.9463 17.0711 41.071C18.9464 39.1956 20 36.6521 20 33.9999C20 31.3477 18.9464 28.8042 17.0711 26.9288C15.1957 25.0535 12.6522 23.9999 10 23.9999ZM29.6 19.9999H38V16.3999H31.6L27.72 9.8599C27.14 8.8599 26 8.1999 24.8 8.1999C23.86 8.1999 23 8.5799 22.4 9.1999L15 16.5799C14.38 17.1999 14 17.9999 14 18.9999C14 20.2599 14.66 21.3199 15.7 21.9399L22.4 25.9999V35.9999H26V22.9999L21.5 19.6999L26.14 14.9999M38 40.9999C36.1435 40.9999 34.363 40.2624 33.0503 38.9496C31.7375 37.6369 31 35.8564 31 33.9999C31 32.1434 31.7375 30.3629 33.0503 29.0502C34.363 27.7374 36.1435 26.9999 38 26.9999C39.8565 26.9999 41.637 27.7374 42.9497 29.0502C44.2625 30.3629 45 32.1434 45 33.9999C45 35.8564 44.2625 37.6369 42.9497 38.9496C41.637 40.2624 39.8565 40.9999 38 40.9999ZM38 23.9999C35.3478 23.9999 32.8043 25.0535 30.9289 26.9288C29.0536 28.8042 28 31.3477 28 33.9999C28 36.6521 29.0536 39.1956 30.9289 41.071C32.8043 42.9463 35.3478 43.9999 38 43.9999C39.3132 43.9999 40.6136 43.7412 41.8268 43.2387C43.0401 42.7362 44.1425 41.9996 45.0711 41.071C45.9997 40.1424 46.7362 39.04 47.2388 37.8267C47.7413 36.6135 48 35.3131 48 33.9999C48 32.6867 47.7413 31.3863 47.2388 30.1731C46.7362 28.9598 45.9997 27.8574 45.0711 26.9288C44.1425 26.0002 43.0401 25.2637 41.8268 24.7611C40.6136 24.2586 39.3132 23.9999 38 23.9999ZM32 9.5999C34 9.5999 35.6 7.9999 35.6 5.9999C35.6 3.9999 34 2.3999 32 2.3999C30 2.3999 28.4 3.9999 28.4 5.9999C28.4 7.9999 30 9.5999 32 9.5999Z" fill="#545454"/>
</svg>
