<svg width="48" height="48" viewBox="0 0 48 48" fill="none" xmlns="http://www.w3.org/2000/svg">
<path opacity="0.2" d="M39 9V39H9V9H39Z" fill="#545454"/>
<path d="M40.5 9V16.5C40.5 16.8978 40.342 17.2794 40.0607 17.5607C39.7794 17.842 39.3978 18 39 18C38.6022 18 38.2206 17.842 37.9393 17.5607C37.658 17.2794 37.5 16.8978 37.5 16.5V10.5H31.5C31.1022 10.5 30.7206 10.342 30.4393 10.0607C30.158 9.77936 30 9.39782 30 9C30 8.60218 30.158 8.22064 30.4393 7.93934C30.7206 7.65804 31.1022 7.5 31.5 7.5H39C39.3978 7.5 39.7794 7.65804 40.0607 7.93934C40.342 8.22064 40.5 8.60218 40.5 9ZM16.5 37.5H10.5V31.5C10.5 31.1022 10.342 30.7206 10.0607 30.4393C9.77936 30.158 9.39782 30 9 30C8.60218 30 8.22064 30.158 7.93934 30.4393C7.65804 30.7206 7.5 31.1022 7.5 31.5V39C7.5 39.3978 7.65804 39.7794 7.93934 40.0607C8.22064 40.342 8.60218 40.5 9 40.5H16.5C16.8978 40.5 17.2794 40.342 17.5607 40.0607C17.842 39.7794 18 39.3978 18 39C18 38.6022 17.842 38.2206 17.5607 37.9393C17.2794 37.658 16.8978 37.5 16.5 37.5ZM39 30C38.6022 30 38.2206 30.158 37.9393 30.4393C37.658 30.7206 37.5 31.1022 37.5 31.5V37.5H31.5C31.1022 37.5 30.7206 37.658 30.4393 37.9393C30.158 38.2206 30 38.6022 30 39C30 39.3978 30.158 39.7794 30.4393 40.0607C30.7206 40.342 31.1022 40.5 31.5 40.5H39C39.3978 40.5 39.7794 40.342 40.0607 40.0607C40.342 39.7794 40.5 39.3978 40.5 39V31.5C40.5 31.1022 40.342 30.7206 40.0607 30.4393C39.7794 30.158 39.3978 30 39 30ZM16.5 7.5H9C8.60218 7.5 8.22064 7.65804 7.93934 7.93934C7.65804 8.22064 7.5 8.60218 7.5 9V16.5C7.5 16.8978 7.65804 17.2794 7.93934 17.5607C8.22064 17.842 8.60218 18 9 18C9.39782 18 9.77936 17.842 10.0607 17.5607C10.342 17.2794 10.5 16.8978 10.5 16.5V10.5H16.5C16.8978 10.5 17.2794 10.342 17.5607 10.0607C17.842 9.77936 18 9.39782 18 9C18 8.60218 17.842 8.22064 17.5607 7.93934C17.2794 7.65804 16.8978 7.5 16.5 7.5Z" fill="#545454"/>
</svg>
