<svg width="46" height="38" viewBox="0 0 46 38" fill="none" xmlns="http://www.w3.org/2000/svg">
<path d="M29.5573 0.79541L20.3454 3.09847L34.1414 9.3695L43.3536 7.06644L29.5573 0.79541ZM18.6675 4.15841V8.23541L33.2321 14.8558V10.7787L18.6675 4.15841ZM45.0312 8.35729L34.8913 10.8923V16.7919C32.9248 17.2832 30.9582 17.7751 28.9917 18.2668V24.1663C27.0252 24.6577 25.0587 25.1496 23.0922 25.6412V31.5409C21.1256 32.0322 19.1592 32.5241 17.1926 33.0157V37.2051L45.0312 30.2453V8.35729ZM17.7581 9.64475L14.4457 10.4729L28.2419 16.744L31.5545 15.9158L17.7581 9.64475ZM12.7679 11.5329V15.6099L27.3325 22.2302V18.1531L12.7679 11.5329ZM11.8586 17.0192L8.54609 17.8474L22.3423 24.1184L25.6549 23.2903L11.8586 17.0192ZM6.86825 18.9073V22.9843L21.433 29.6047V25.5276L6.86825 18.9073ZM5.95887 24.3938L2.64659 25.222L16.4427 31.4929L19.7553 30.6647L5.95887 24.3938ZM0.96875 26.2818V30.3587L15.5334 36.9791V32.9021L0.96875 26.2818Z" fill="#545454"/>
</svg>
