<svg width="48" height="48" viewBox="0 0 48 48" fill="none" xmlns="http://www.w3.org/2000/svg">
<rect width="48" height="48" rx="4" fill="#483C32" fill-opacity="0.1"/>
<g clip-path="url(#clip0_318_6673)">
<path d="M30 12H21.75C20.9216 12 20.25 12.6716 20.25 13.5H28.5V19.5H34.5V31.5H29.25V33H34.5C35.3284 33 36 32.3284 36 31.5V18.0004L30 12ZM30 18V14.121L33.8783 18H30ZM13.5 15C12.6716 15 12 15.6716 12 16.5V34.5C12 35.3284 12.6716 36 13.5 36H26.25C27.0784 36 27.75 35.3284 27.75 34.5V21.0004L21.75 15H13.5ZM26.25 34.5H13.5V16.5H20.25V22.5H26.25V34.5ZM21.75 21V17.121L25.6283 21H21.75Z" fill="#483C32"/>
</g>
<defs>
<clipPath id="clip0_318_6673">
<rect width="24" height="24" fill="white" transform="translate(12 12)"/>
</clipPath>
</defs>
</svg>
