<svg width="48" height="48" viewBox="0 0 48 48" fill="none" xmlns="http://www.w3.org/2000/svg">
<path d="M33 28.5C33 29.2956 32.6839 30.0587 32.1213 30.6213C31.5587 31.1839 30.7956 31.5 30 31.5C29.2044 31.5 28.4413 31.1839 27.8787 30.6213C27.3161 30.0587 27 29.2956 27 28.5C27 27.7044 27.3161 26.9413 27.8787 26.3787C28.4413 25.8161 29.2044 25.5 30 25.5C30.7956 25.5 31.5587 25.8161 32.1213 26.3787C32.6839 26.9413 33 27.7044 33 28.5ZM33 22.5C33.7956 22.5 34.5587 22.1839 35.1213 21.6213C35.6839 21.0587 36 20.2956 36 19.5C36 18.7044 35.6839 17.9413 35.1213 17.3787C34.5587 16.8161 33.7956 16.5 33 16.5C32.2044 16.5 31.4413 16.8161 30.8787 17.3787C30.3161 17.9413 30 18.7044 30 19.5C30 20.2956 30.3161 21.0587 30.8787 21.6213C31.4413 22.1839 32.2044 22.5 33 22.5ZM15 18C15.3978 18 15.7794 18.158 16.0607 18.4393C16.342 18.7206 16.5 19.1022 16.5 19.5V22.5H19.5C19.8978 22.5 20.2794 22.658 20.5607 22.9393C20.842 23.2206 21 23.6022 21 24C21 24.3978 20.842 24.7794 20.5607 25.0607C20.2794 25.342 19.8978 25.5 19.5 25.5H16.5V28.5C16.5 28.8978 16.342 29.2794 16.0607 29.5607C15.7794 29.842 15.3978 30 15 30C14.6022 30 14.2206 29.842 13.9393 29.5607C13.658 29.2794 13.5 28.8978 13.5 28.5V25.5H10.5C10.1022 25.5 9.72064 25.342 9.43934 25.0607C9.15804 24.7794 9 24.3978 9 24C9 23.6022 9.15804 23.2206 9.43934 22.9393C9.72064 22.658 10.1022 22.5 10.5 22.5H13.5V19.5C13.5 19.1022 13.658 18.7206 13.9393 18.4393C14.2206 18.158 14.6022 18 15 18ZM3 24C3 15.7155 9.7155 9 18 9H30C38.2845 9 45 15.7155 45 24C45 32.2845 38.2845 39 30 39H18C9.7155 39 3 32.2845 3 24ZM18 12C14.8174 12 11.7652 13.2643 9.51472 15.5147C7.26428 17.7652 6 20.8174 6 24C6 27.1826 7.26428 30.2348 9.51472 32.4853C11.7652 34.7357 14.8174 36 18 36H30C33.1826 36 36.2348 34.7357 38.4853 32.4853C40.7357 30.2348 42 27.1826 42 24C42 20.8174 40.7357 17.7652 38.4853 15.5147C36.2348 13.2643 33.1826 12 30 12H18Z" fill="#545454"/>
</svg>
