<svg width="48" height="48" viewBox="0 0 48 48" fill="none" xmlns="http://www.w3.org/2000/svg">
<path d="M45 36.3752H43.125V18.5008C43.1257 18.0681 43.0195 17.6418 42.8157 17.2601C42.6119 16.8783 42.3169 16.5529 41.9569 16.3127L25.4569 5.31395C25.0255 5.02615 24.5186 4.87256 24 4.87256C23.4814 4.87256 22.9745 5.02615 22.5431 5.31395L6.04313 16.3127C5.68314 16.5529 5.38812 16.8783 5.18431 17.2601C4.98051 17.6418 4.87426 18.0681 4.875 18.5008V36.3752H3C2.70163 36.3752 2.41548 36.4937 2.2045 36.7047C1.99353 36.9157 1.875 37.2018 1.875 37.5002C1.875 37.7986 1.99353 38.0847 2.2045 38.2957C2.41548 38.5067 2.70163 38.6252 3 38.6252H45C45.2984 38.6252 45.5845 38.5067 45.7955 38.2957C46.0065 38.0847 46.125 37.7986 46.125 37.5002C46.125 37.2018 46.0065 36.9157 45.7955 36.7047C45.5845 36.4937 45.2984 36.3752 45 36.3752ZM7.125 18.5008C7.1248 18.4389 7.13994 18.3779 7.16906 18.3233C7.19818 18.2686 7.24037 18.2221 7.29187 18.1877L23.7919 7.18708C23.8535 7.14596 23.9259 7.12402 24 7.12402C24.0741 7.12402 24.1465 7.14596 24.2081 7.18708L40.7081 18.1877C40.7594 18.2219 40.8014 18.2682 40.8305 18.3225C40.8596 18.3767 40.8749 18.4374 40.875 18.499V36.3752H35.625V25.5002C35.625 25.2018 35.5065 24.9157 35.2955 24.7047C35.0845 24.4937 34.7984 24.3752 34.5 24.3752H13.5C13.2016 24.3752 12.9155 24.4937 12.7045 24.7047C12.4935 24.9157 12.375 25.2018 12.375 25.5002V36.3752H7.125V18.5008ZM33.375 26.6252V30.3752H25.125V26.6252H33.375ZM22.875 30.3752H14.625V26.6252H22.875V30.3752ZM14.625 32.6252H22.875V36.3752H14.625V32.6252ZM25.125 32.6252H33.375V36.3752H25.125V32.6252Z" fill="#545454"/>
</svg>
