<svg width="48" height="48" viewBox="0 0 48 48" fill="none" xmlns="http://www.w3.org/2000/svg">
<path fill-rule="evenodd" clip-rule="evenodd" d="M13.5 10.097C13.5 7.774 24 6 24 6C24 6 34.5 7.774 34.5 10.097C34.5 13.194 32.59 14.5 32.59 14.5H15.41C15.41 14.5 13.5 13.194 13.5 10.097ZM25.5 10.5C25.5 10.8978 25.342 11.2794 25.0607 11.5607C24.7794 11.842 24.3978 12 24 12C23.6022 12 23.2206 11.842 22.9393 11.5607C22.658 11.2794 22.5 10.8978 22.5 10.5C22.5 10.1022 22.658 9.72064 22.9393 9.43934C23.2206 9.15804 23.6022 9 24 9C24.3978 9 24.7794 9.15804 25.0607 9.43934C25.342 9.72064 25.5 10.1022 25.5 10.5ZM31.814 18.28C33.204 17.195 32.988 16 32.988 16H15.012C15.012 16 14.795 17.195 16.186 18.28C15.9299 19.4483 15.9391 20.6591 16.2128 21.8234C16.4864 22.9877 17.0177 24.0758 17.7674 25.0076C18.5172 25.9395 19.4663 26.6914 20.545 27.208C21.6237 27.7246 22.8045 27.9928 24.0005 27.9928C25.1965 27.9928 26.3773 27.7246 27.456 27.208C28.5347 26.6914 29.4838 25.9395 30.2336 25.0076C30.9833 24.0758 31.5146 22.9877 31.7882 21.8234C32.0619 20.6591 32.0711 19.4483 31.815 18.28M24 20C26.721 20 28.624 19.686 29.952 19.234C29.9833 19.4847 29.9993 19.74 30 20C29.9988 20.8195 29.8298 21.6301 29.5033 22.3818C29.1768 23.1335 28.6997 23.8103 28.1016 24.3705C27.5034 24.9308 26.7969 25.3625 26.0254 25.6392C25.254 25.9158 24.4341 26.0315 23.6163 25.9791C22.7984 25.9267 22 25.7073 21.2702 25.3344C20.5404 24.9615 19.8947 24.4431 19.373 23.8111C18.8512 23.1791 18.4645 22.4469 18.2366 21.6597C18.0087 20.8725 17.9446 20.047 18.048 19.234C19.377 19.686 21.278 20 24 20ZM25.5 30C25.7652 30 26.0196 30.1054 26.2071 30.2929C26.3946 30.4804 26.5 30.7348 26.5 31V32.382C26.4999 32.5677 26.4481 32.7496 26.3504 32.9075C26.2528 33.0654 26.1131 33.193 25.947 33.276L25.5 33.5L26.077 36.385L30.317 30.025C30.6077 30.025 30.8757 30.0263 31.121 30.029C36.526 31.262 42 33.776 42 37.558V42H6V37.558C6 33.776 11.714 31.233 17.118 30C17.099 30.004 17.302 30.007 17.673 30.01L21.957 36.435L22.5 33.5L22.053 33.276C21.8869 33.193 21.7472 33.0654 21.6496 32.9075C21.5519 32.7496 21.5001 32.5677 21.5 32.382V31C21.5 30.7348 21.6054 30.4804 21.7929 30.2929C21.9804 30.1054 22.2348 30 22.5 30H25.5ZM35 35.333C35 35.333 33.667 34.667 33 34C32.333 34.667 31 35.333 31 35.333C31 35.333 31.698 38 33 38C34.302 38 35 35.333 35 35.333Z" fill="#545454"/>
</svg>
