<svg width="48" height="48" viewBox="0 0 48 48" fill="none" xmlns="http://www.w3.org/2000/svg">
<rect width="48" height="48" rx="4" fill="#483C32" fill-opacity="0.1"/>
<path d="M33.6484 31.875C32.2206 29.4065 30.0203 27.6365 27.4525 26.7975C28.7226 26.0414 29.7094 24.8892 30.2614 23.5179C30.8134 22.1467 30.8999 20.6321 30.5078 19.2069C30.1157 17.7817 29.2666 16.5245 28.0909 15.6286C26.9151 14.7327 25.4778 14.2474 23.9996 14.2474C22.5215 14.2474 21.0841 14.7327 19.9084 15.6286C18.7327 16.5245 17.8836 17.7817 17.4915 19.2069C17.0993 20.6321 17.1859 22.1467 17.7379 23.5179C18.2898 24.8892 19.2767 26.0414 20.5468 26.7975C17.979 27.6356 15.7787 29.4056 14.3509 31.875C14.2985 31.9604 14.2638 32.0554 14.2488 32.1544C14.2337 32.2534 14.2386 32.3544 14.2633 32.4515C14.2879 32.5486 14.3317 32.6397 14.3921 32.7196C14.4526 32.7995 14.5284 32.8664 14.6151 32.9165C14.7018 32.9666 14.7977 32.9988 14.8971 33.0113C14.9965 33.0237 15.0973 33.0161 15.1937 32.989C15.2901 32.9618 15.3801 32.9156 15.4584 32.8531C15.5366 32.7906 15.6015 32.713 15.6493 32.625C17.4156 29.5725 20.5375 27.75 23.9996 27.75C27.4618 27.75 30.5837 29.5725 32.35 32.625C32.3977 32.713 32.4627 32.7906 32.5409 32.8531C32.6192 32.9156 32.7092 32.9618 32.8056 32.989C32.902 33.0161 33.0028 33.0237 33.1022 33.0113C33.2016 32.9988 33.2975 32.9666 33.3842 32.9165C33.4709 32.8664 33.5467 32.7995 33.6072 32.7196C33.6676 32.6397 33.7114 32.5486 33.736 32.4515C33.7607 32.3544 33.7656 32.2534 33.7505 32.1544C33.7355 32.0554 33.7008 31.9604 33.6484 31.875ZM18.7496 21C18.7496 19.9616 19.0576 18.9466 19.6344 18.0832C20.2113 17.2199 21.0312 16.547 21.9906 16.1496C22.9499 15.7523 24.0055 15.6483 25.0239 15.8509C26.0423 16.0534 26.9777 16.5535 27.712 17.2877C28.4462 18.0219 28.9462 18.9574 29.1488 19.9758C29.3513 20.9942 29.2474 22.0498 28.85 23.0091C28.4527 23.9684 27.7797 24.7883 26.9164 25.3652C26.053 25.9421 25.038 26.25 23.9996 26.25C22.6077 26.2485 21.2732 25.6949 20.289 24.7107C19.3047 23.7264 18.7511 22.3919 18.7496 21Z" fill="#483C32"/>
</svg>
