<svg width="100" height="100" viewBox="0 0 100 100" fill="none" xmlns="http://www.w3.org/2000/svg">
<g clip-path="url(#clip0_318_6629)">
<path d="M12.6268 50.3945C11.8947 50.6294 11.286 51.1455 10.9345 51.8292C10.583 52.513 10.5176 53.3083 10.7525 54.0403C10.9874 54.7723 11.5035 55.381 12.1872 55.7325C12.871 56.084 13.6663 56.1495 14.3983 55.9146C15.1303 55.6797 15.739 55.1636 16.0905 54.4799C16.442 53.7961 16.5075 53.0008 16.2726 52.2688C16.0377 51.5368 15.5216 50.928 14.8378 50.5766C14.1541 50.2251 13.3588 50.1596 12.6268 50.3945ZM12.3297 53.5342C12.229 53.2204 12.257 52.8796 12.4077 52.5866C12.5583 52.2935 12.8192 52.0723 13.1329 51.9717C13.4466 51.871 13.7875 51.899 14.0805 52.0497C14.3735 52.2003 14.5947 52.4612 14.6954 52.7749C14.7961 53.0886 14.768 53.4295 14.6174 53.7225C14.4667 54.0156 14.2059 54.2367 13.8922 54.3374C13.5784 54.4381 13.2376 54.41 12.9445 54.2594C12.6515 54.1088 12.4303 53.8479 12.3297 53.5342Z" fill="#6F675E" fill-opacity="0.4"/>
<path d="M15.1155 43.1727L11.4806 40.4625L4.62606 50.7846L4.11328 50.9431L4.11581 50.951L3.71363 51.0801L6.7506 60.5431L23.3109 55.2284L20.2739 45.7654L19.5153 46.0088L16.589 42.0779L15.1155 43.1727ZM17.849 46.5436L9.9411 49.0815L15.1867 45.1835L16.2637 44.4142L17.849 46.5436ZM13.7278 44.2043L8.3129 48.228L11.8935 42.8359L13.7278 44.2043ZM7.35822 57.0159L6.25985 53.5934C6.55506 53.369 6.79632 53.0815 6.96594 52.7518C7.13555 52.422 7.22922 52.0586 7.24008 51.6879L17.7598 48.3118C17.9843 48.6071 18.272 48.8484 18.6018 49.0179C18.9317 49.1875 19.2953 49.2811 19.6661 49.2918L20.7644 52.7143C20.4692 52.9387 20.2279 53.2264 20.0583 53.5563C19.8887 53.8861 19.7952 54.2498 19.7845 54.6205L9.2663 57.9961C9.04128 57.701 8.7532 57.4598 8.42309 57.2902C8.09298 57.1207 7.72918 57.0269 7.35822 57.0159Z" fill="#6F675E" fill-opacity="0.4"/>
</g>
<circle cx="50" cy="50" r="50" fill="#6F675E" fill-opacity="0.2"/>
<path d="M58.6698 19.375L72.4998 34.951V76.645C72.5103 77.3574 72.2374 78.0448 71.7413 78.5562C71.2451 79.0675 70.5662 79.3609 69.8538 79.372H30.1458C29.7928 79.3665 29.4444 79.2916 29.1203 79.1514C28.7963 79.0112 28.5031 78.8086 28.2573 78.5551C28.0116 78.3016 27.8183 78.0022 27.6883 77.6739C27.5583 77.3456 27.4943 76.995 27.4998 76.642V22.105C27.4998 20.596 28.6848 19.375 30.1458 19.375H58.6698ZM56.9178 23.467H31.4718V75.283H68.5278V38.401H60.0408C57.9258 38.485 56.2908 38.143 55.1208 37.219C53.7588 36.145 53.2608 34.315 53.3268 31.876V23.476H56.9298L56.9178 23.467ZM52.7718 63.01C53.8668 63.01 54.7578 63.928 54.7578 65.056C54.7626 65.321 54.7149 65.5843 54.6176 65.8307C54.5202 66.0772 54.375 66.302 54.1904 66.4921C54.0059 66.6823 53.7855 66.8341 53.542 66.9387C53.2986 67.0434 53.0368 67.0989 52.7718 67.102H37.4268C37.1619 67.0989 36.9001 67.0434 36.6566 66.9387C36.4132 66.8341 36.1928 66.6823 36.0082 66.4921C35.8237 66.302 35.6785 66.0772 35.5811 65.8307C35.4838 65.5843 35.4361 65.321 35.4408 65.056C35.4408 63.928 36.3288 63.01 37.4268 63.01H52.7718ZM61.9368 52.102C63.0318 52.102 63.9228 53.017 63.9228 54.148C63.9276 54.413 63.8799 54.6763 63.7826 54.9227C63.6852 55.1692 63.54 55.394 63.3554 55.5841C63.1709 55.7743 62.9505 55.9261 62.707 56.0307C62.4636 56.1354 62.2018 56.1909 61.9368 56.194H37.4268C37.1619 56.1909 36.9001 56.1354 36.6566 56.0307C36.4132 55.9261 36.1928 55.7743 36.0082 55.5841C35.8237 55.394 35.6785 55.1692 35.5811 54.9227C35.4838 54.6763 35.4361 54.413 35.4408 54.148C35.4408 53.017 36.3288 52.102 37.4268 52.102H61.9368ZM52.7718 41.194C53.8668 41.194 54.7578 42.109 54.7578 43.24C54.7622 43.5047 54.7142 43.7677 54.6167 44.0138C54.5191 44.2599 54.3739 44.4843 54.1894 44.6742C54.0048 44.864 53.7846 45.0155 53.5413 45.12C53.2981 45.2245 53.0366 45.2799 52.7718 45.283H37.4268C37.1621 45.2799 36.9006 45.2245 36.6573 45.12C36.4141 45.0155 36.1939 44.864 36.0093 44.6742C35.8248 44.4843 35.6796 44.2599 35.582 44.0138C35.4845 43.7677 35.4365 43.5047 35.4408 43.24C35.4408 42.109 36.3288 41.194 37.4268 41.194H52.7718ZM57.1518 23.725L57.2958 23.902V31.93C57.2598 33.247 57.4368 33.898 57.5358 33.97C57.8208 34.198 58.6098 34.363 59.9658 34.312H66.5448L67.6698 35.584L68.5278 36.541L57.1518 23.725Z" fill="#6F675E"/>
<circle cx="71.25" cy="71.875" r="15" fill="#F2F2F2"/>
<path d="M80.625 80C80.625 80.2072 80.5427 80.4059 80.3962 80.5524C80.2497 80.6989 80.051 80.7812 79.8438 80.7812H62.6562C62.449 80.7812 62.2503 80.6989 62.1038 80.5524C61.9573 80.4059 61.875 80.2072 61.875 80C61.875 79.7928 61.9573 79.5941 62.1038 79.4476C62.2503 79.3011 62.449 79.2188 62.6562 79.2188H79.8438C80.051 79.2188 80.2497 79.3011 80.3962 79.4476C80.5427 79.5941 80.625 79.7928 80.625 80ZM80.625 72.1875V76.0938C80.625 76.5082 80.4604 76.9056 80.1674 77.1986C79.8743 77.4916 79.4769 77.6562 79.0625 77.6562H63.4375C63.0231 77.6562 62.6257 77.4916 62.3326 77.1986C62.0396 76.9056 61.875 76.5082 61.875 76.0938V72.1875C61.875 71.7731 62.0396 71.3757 62.3326 71.0826C62.6257 70.7896 63.0231 70.625 63.4375 70.625H68.9482L67.4141 63.4678C67.3164 63.0122 67.3218 62.5405 67.4299 62.0873C67.538 61.6341 67.7461 61.2108 68.039 60.8484C68.3318 60.486 68.702 60.1937 69.1224 59.9928C69.5428 59.7919 70.0028 59.6876 70.4688 59.6875H72.0312C72.4973 59.6875 72.9574 59.7917 73.3779 59.9925C73.7985 60.1933 74.1688 60.4856 74.4617 60.848C74.7547 61.2104 74.9628 61.6338 75.071 62.0871C75.1792 62.5404 75.1846 63.0121 75.0869 63.4678L73.5518 70.625H79.0625C79.4769 70.625 79.8743 70.7896 80.1674 71.0826C80.4604 71.3757 80.625 71.7731 80.625 72.1875ZM70.5459 70.625H71.9541L73.5586 63.1396C73.6074 62.9119 73.6046 62.6761 73.5505 62.4496C73.4964 62.223 73.3923 62.0114 73.2459 61.8303C73.0995 61.6492 72.9144 61.503 72.7043 61.4026C72.4941 61.3022 72.2642 61.2501 72.0312 61.25H70.4688C70.2358 61.2499 70.0057 61.302 69.7954 61.4023C69.5851 61.5027 69.3999 61.6488 69.2534 61.8299C69.1069 62.0111 69.0027 62.2227 68.9486 62.4493C68.8944 62.676 68.8916 62.9118 68.9404 63.1396L70.5459 70.625ZM79.0625 76.0938V72.1875H63.4375V76.0938H79.0625Z" fill="#F9C20A"/>
<circle opacity="0.4" cx="53.5" cy="11.5" r="2" stroke="#483C32" stroke-opacity="0.5"/>
<circle opacity="0.4" cx="59.5" cy="8.5" r="2" stroke="#483C32" stroke-opacity="0.5"/>
<circle opacity="0.4" cx="60.5" cy="14.5" r="2" stroke="#483C32" stroke-opacity="0.5"/>
<defs>
<clipPath id="clip0_318_6629">
<rect width="19.8768" height="19.8768" fill="white" transform="translate(0 43.5737) rotate(-17.793)"/>
</clipPath>
</defs>
</svg>
