<svg width="48" height="48" viewBox="0 0 48 48" fill="none" xmlns="http://www.w3.org/2000/svg">
<path d="M42.8634 36.6396V30.4883H5.13672V36.6396H8.86472V36.2769C8.86472 35.9206 8.9349 35.5678 9.07126 35.2386C9.20762 34.9094 9.40748 34.6103 9.65944 34.3583C9.91139 34.1064 10.2105 33.9065 10.5397 33.7702C10.8689 33.6338 11.2217 33.5636 11.5781 33.5636C11.9344 33.5636 12.2872 33.6338 12.6164 33.7702C12.9456 33.9065 13.2447 34.1064 13.4967 34.3583C13.7486 34.6103 13.9485 34.9094 14.0848 35.2386C14.2212 35.5678 14.2914 35.9206 14.2914 36.2769V36.6396H17.1461V36.2769C17.1461 35.5573 17.4319 34.8672 17.9408 34.3583C18.4496 33.8495 19.1398 33.5636 19.8594 33.5636C20.579 33.5636 21.2692 33.8495 21.778 34.3583C22.2868 34.8672 22.5727 35.5573 22.5727 36.2769V36.6396H25.4274V36.2769C25.4274 35.5573 25.7133 34.8672 26.2221 34.3583C26.731 33.8495 27.4211 33.5636 28.1407 33.5636C28.8603 33.5636 29.5505 33.8495 30.0593 34.3583C30.5682 34.8672 30.854 35.5573 30.854 36.2769V36.6396H33.7094V36.2769C33.7094 35.5573 33.9953 34.8672 34.5041 34.3583C35.013 33.8495 35.7031 33.5636 36.4227 33.5636C37.1423 33.5636 37.8325 33.8495 38.3413 34.3583C38.8502 34.8672 39.1361 35.5573 39.1361 36.2769V36.6396H42.8634Z" fill="#D0CFCE"/>
<path d="M37.9802 24.3378C37.9798 23.7089 37.7299 23.1059 37.2853 22.6612C36.8407 22.2164 36.2377 21.9664 35.6089 21.9658H12.3915C11.7625 21.9662 11.1594 22.2162 10.7147 22.661C10.2699 23.1057 10.0199 23.7088 10.0195 24.3378H37.9802Z" fill="#B1CC33"/>
<path d="M8.75 24.3374H39.25V30.4887H8.75V24.3374Z" fill="#D0CFCE"/>
<path d="M31.7711 15.8145V15.1465H29.2298L28.9298 15.8145H16.2284C15.5995 15.8148 14.9963 16.0649 14.5516 16.5096C14.1068 16.9544 13.8568 17.5575 13.8564 18.1865H34.1431C34.1428 17.5575 33.8927 16.9544 33.448 16.5096C33.0032 16.0649 32.4001 15.8148 31.7711 15.8145Z" fill="#B1CC33"/>
<path d="M12.4717 21.965V18.1864H27.6277L28.0083 17.519H35.529V21.965H12.4717Z" fill="#D0CFCE"/>
<path d="M39.1434 28.1167H27.65V27.4487H15.3867V28.1167H8.85735C8.22837 28.1171 7.62524 28.3671 7.18048 28.8119C6.73573 29.2566 6.4857 29.8597 6.48535 30.4887H41.5154C41.515 29.8596 41.2649 29.2564 40.82 28.8116C40.3751 28.3668 39.7725 28.1169 39.1434 28.1167Z" fill="#B1CC33"/>
<path d="M8.75 28.1173V24.3379H39.25V28.1173M12.4713 21.9659V18.1873H28.008M21.0233 12.0659C20.3162 11.5784 19.4776 11.3174 18.6187 11.3174C17.7598 11.3174 16.9211 11.5784 16.214 12.0659" stroke="black" stroke-width="1.33333" stroke-linecap="round" stroke-linejoin="round"/>
<path d="M20.2389 8.70508C19.3322 8.86305 18.4831 9.25673 17.7767 9.84661C17.0702 10.4365 16.5314 11.2018 16.2142 12.0657C15.5092 11.3293 14.6157 10.8003 13.6309 10.5364C12.6461 10.2725 11.6077 10.2838 10.6289 10.5691" stroke="black" stroke-width="1.33333" stroke-linecap="round" stroke-linejoin="round"/>
<path d="M12.2822 12.8081C12.8119 12.345 13.4558 12.032 14.1471 11.9015C14.8385 11.7709 15.5521 11.8275 16.2142 12.0654M14.2482 8.56006C16.0469 9.28806 16.2149 12.0654 16.2149 12.0654M30.1916 19.8534C30.9198 19.2373 31.8079 18.8405 32.7527 18.7092C33.6975 18.5778 34.6602 18.7173 35.5289 19.1114M35.5289 19.1114C35.5289 19.1114 34.6696 15.8147 31.7716 15.8147M35.5289 19.1114C36.2339 18.3747 37.1275 17.8455 38.1125 17.5815C39.0974 17.3175 40.1359 17.3287 41.1149 17.6141" stroke="black" stroke-width="1.33333" stroke-linecap="round" stroke-linejoin="round"/>
<path d="M39.4614 19.8534C38.9315 19.3904 38.2875 19.0774 37.5961 18.947C36.9046 18.8165 36.1909 18.8733 35.5287 19.1114M35.5287 19.1114C35.5287 19.1114 35.6961 16.3341 37.4947 15.6068M35.5287 19.1114V24.3381M37.98 24.3381C37.9797 23.7092 37.7298 23.1062 37.2852 22.6615C36.8405 22.2167 36.2376 21.9666 35.6087 21.9661H12.3914C11.7624 21.9665 11.1593 22.2165 10.7145 22.6612C10.2698 23.106 10.0197 23.7091 10.0194 24.3381M16.2141 12.0654V21.9661M15.3867 28.1168H8.85739C8.2284 28.1171 7.62528 28.3671 7.18052 28.8119C6.73576 29.2567 6.48574 29.8598 6.48539 30.4888H41.5154C41.515 29.8597 41.2649 29.2564 40.82 28.8117C40.3751 28.3669 39.7718 28.1169 39.1427 28.1168H27.6507M42.8634 36.6401V30.4888H5.13672V36.6401H8.86472V36.2774C8.86472 35.9211 8.9349 35.5683 9.07126 35.2391C9.20762 34.9099 9.40748 34.6108 9.65944 34.3588C9.91139 34.1069 10.2105 33.907 10.5397 33.7706C10.8689 33.6343 11.2217 33.5641 11.5781 33.5641C11.9344 33.5641 12.2872 33.6343 12.6164 33.7706C12.9456 33.907 13.2447 34.1069 13.4967 34.3588C13.7486 34.6108 13.9485 34.9099 14.0848 35.2391C14.2212 35.5683 14.2914 35.9211 14.2914 36.2774V36.6401H17.1461V36.2774C17.1461 35.5578 17.4319 34.8677 17.9408 34.3588C18.4496 33.85 19.1398 33.5641 19.8594 33.5641C20.579 33.5641 21.2692 33.85 21.778 34.3588C22.2868 34.8677 22.5727 35.5578 22.5727 36.2774V36.6401H25.4274V36.2774C25.4274 35.5578 25.7133 34.8677 26.2221 34.3588C26.731 33.85 27.4211 33.5641 28.1407 33.5641C28.8603 33.5641 29.5505 33.85 30.0593 34.3588C30.5682 34.8677 30.854 35.5578 30.854 36.2774V36.6401H33.7094V36.2774C33.7094 35.5578 33.9953 34.8677 34.5041 34.3588C35.013 33.85 35.7031 33.5641 36.4227 33.5641C37.1423 33.5641 37.8325 33.85 38.3413 34.3588C38.8502 34.8677 39.1361 35.5578 39.1361 36.2774V36.6401H42.8634Z" stroke="black" stroke-width="1.33333" stroke-linecap="round" stroke-linejoin="round"/>
<path d="M25.3423 28.1043C23.2129 28.1043 21.7509 30.4889 21.7509 30.4889M21.7509 30.4889C21.9838 29.41 21.9701 28.2925 21.7109 27.2196M21.7509 30.4889C21.3216 29.7938 20.702 29.237 19.9655 28.8832C19.229 28.5295 18.4066 28.3943 17.5956 28.4936M29.2303 15.8149H16.2289C15.5999 15.8153 14.9968 16.0653 14.5521 16.5101C14.1073 16.9548 13.8573 17.558 13.8569 18.1869H28.0083" stroke="black" stroke-width="1.33333" stroke-linecap="round" stroke-linejoin="round"/>
</svg>
