<svg width="48" height="48" viewBox="0 0 48 48" fill="none" xmlns="http://www.w3.org/2000/svg">
<g clip-path="url(#clip0_318_6568)">
<path d="M8.97998 23.9399L22.344 10.5779C22.4746 10.4564 22.5783 10.3089 22.6486 10.145C22.7188 9.98104 22.7541 9.80422 22.752 9.62587V1.67587C22.7453 1.40948 22.6626 1.15053 22.5139 0.929461C22.3651 0.708392 22.1563 0.534381 21.912 0.427873C21.6647 0.327268 21.3932 0.30169 21.1314 0.354327C20.8697 0.406964 20.6292 0.535487 20.44 0.723873L2.79998 18.3859C0.919983 20.2659 0.0239832 22.0859 -1.67644e-05 23.9959C-0.0240168 25.9059 0.867983 27.6959 2.71998 29.5439L20.436 47.2639C20.5577 47.3941 20.7052 47.4975 20.8691 47.5674C21.0331 47.6373 21.2098 47.6722 21.388 47.6699C21.5752 47.6778 21.7592 47.6197 21.908 47.5059C22.1559 47.4033 22.3679 47.2297 22.5174 47.0069C22.6668 46.7841 22.7471 46.5221 22.748 46.2539V38.2539C22.7387 37.8961 22.5927 37.5554 22.34 37.3019L8.97998 23.9399ZM3.69998 26.5799C3.01998 25.6799 2.69598 24.8359 2.69598 24.0199C2.71998 22.8799 3.37598 21.6559 4.70998 20.3199L20.03 4.99587V9.10987L5.90998 23.2299C4.92287 24.1595 4.16617 25.3066 3.69998 26.5799ZM20.032 42.9899L7.12998 30.0899C7.07351 30.0052 7.01066 29.925 6.94198 29.8499C6.53398 29.4359 5.30998 28.2119 7.12998 25.9279L20.03 38.8259L20.032 42.9899ZM27.564 0.751873C27.377 0.561327 27.1374 0.430971 26.8758 0.37752C26.6143 0.324069 26.3427 0.34996 26.096 0.451873C25.8473 0.553829 25.6345 0.72716 25.4843 0.949986C25.3341 1.17281 25.2532 1.43515 25.252 1.70387V9.73387C25.26 10.0939 25.404 10.4339 25.66 10.6859L39.022 24.0459L25.66 37.4099C25.5294 37.5314 25.4257 37.6788 25.3554 37.8428C25.2851 38.0067 25.2499 38.1835 25.252 38.3619V46.2819C25.2521 46.5496 25.3311 46.8114 25.479 47.0346C25.6268 47.2578 25.8372 47.4325 26.0837 47.537C26.3302 47.6415 26.602 47.6711 26.8652 47.6222C27.1285 47.5733 27.3715 47.448 27.564 47.2619L45.198 29.6279C47.078 27.7479 47.976 25.9279 47.998 24.0199C48.032 22.1159 47.132 20.3199 45.278 18.4699L27.564 0.751873ZM27.972 9.16187V4.99987L40.874 17.8959C40.9287 17.9839 40.9913 18.0652 41.062 18.1399C41.47 18.5479 42.694 19.7739 40.874 22.0599L27.976 9.15987L27.972 9.16187ZM43.266 27.6959L27.946 43.0179V38.9379L42.066 24.7839C43.0471 23.8504 43.8023 22.7053 44.274 21.4359C44.954 22.3359 45.282 23.1799 45.282 23.9959C45.254 25.1359 44.602 26.3359 43.266 27.6959ZM34.014 25.1079H13.8C13.5263 25.1079 13.2638 24.9991 13.0702 24.8056C12.8767 24.6121 12.768 24.3496 12.768 24.0759V23.9679C12.768 23.3959 13.228 22.9319 13.8 22.9319H34.02C34.2944 22.9329 34.5573 23.0424 34.7514 23.2365C34.9454 23.4305 35.0549 23.6934 35.056 23.9679V24.0759C35.0508 24.3487 34.9399 24.6088 34.7466 24.8013C34.5533 24.9939 34.2928 25.1038 34.02 25.1079H34.014ZM31.134 20.0199V20.1319C31.134 20.2681 31.107 20.4029 31.0547 20.5287C31.0023 20.6544 30.9256 20.7685 30.8289 20.8644C30.7322 20.9604 30.6175 21.0362 30.4914 21.0876C30.3652 21.139 30.2302 21.1649 30.094 21.1639H17.684C17.5481 21.1644 17.4135 21.1381 17.2878 21.0865C17.1622 21.0348 17.0479 20.9589 16.9517 20.863C16.8554 20.7671 16.779 20.6532 16.7269 20.5277C16.6748 20.4023 16.648 20.2677 16.648 20.1319V20.0199C16.648 19.4499 17.112 18.9859 17.684 18.9859H30.094C30.666 18.9859 31.126 19.4499 31.126 20.0199H31.13H31.134ZM27.294 16.0459V16.1539C27.2945 16.2899 27.2681 16.4247 27.2164 16.5505C27.1646 16.6763 27.0885 16.7906 26.9924 16.8869C26.8963 16.9832 26.7822 17.0595 26.6565 17.1115C26.5308 17.1635 26.396 17.1901 26.26 17.1899H21.332C21.1961 17.1899 21.0616 17.163 20.9361 17.1109C20.8107 17.0588 20.6967 16.9824 20.6008 16.8862C20.5049 16.7899 20.429 16.6757 20.3774 16.55C20.3258 16.4244 20.2995 16.2897 20.3 16.1539V16.0459C20.3 15.4739 20.764 15.0139 21.332 15.0139H26.26C26.396 15.0123 26.5309 15.0379 26.6568 15.0892C26.7827 15.1404 26.8972 15.2164 26.9933 15.3126C27.0895 15.4087 27.1654 15.5231 27.2167 15.649C27.268 15.775 27.2936 15.9099 27.292 16.0459H27.294ZM26.26 30.9319C26.828 30.9319 27.292 31.3959 27.292 31.9679V32.0759C27.292 32.2114 27.2653 32.3456 27.2134 32.4708C27.1616 32.596 27.0855 32.7098 26.9897 32.8056C26.8939 32.9014 26.7801 32.9775 26.6549 33.0293C26.5297 33.0812 26.3955 33.1079 26.26 33.1079H21.332C21.0583 33.1079 20.7958 32.9991 20.6022 32.8056C20.4087 32.6121 20.3 32.3496 20.3 32.0759V31.9679C20.3 31.3959 20.764 30.9319 21.332 30.9319H26.26ZM30.096 29.1079H17.686C17.5501 29.1084 17.4155 29.0821 17.2898 29.0305C17.1642 28.9788 17.0499 28.9029 16.9537 28.807C16.8574 28.7111 16.781 28.5972 16.7289 28.4717C16.6768 28.3463 16.65 28.2117 16.65 28.0759V27.9679C16.651 27.6934 16.7605 27.4305 16.9546 27.2365C17.1486 27.0424 17.4115 26.9329 17.686 26.9319H30.096C30.668 26.9319 31.128 27.3959 31.128 27.9679V28.0759C31.128 28.3496 31.0193 28.6121 30.8257 28.8056C30.6322 28.9991 30.3697 29.1079 30.096 29.1079Z" fill="#545454"/>
</g>
<defs>
<clipPath id="clip0_318_6568">
<rect width="48" height="48" fill="white"/>
</clipPath>
</defs>
</svg>
