<svg width="48" height="48" viewBox="0 0 48 48" fill="none" xmlns="http://www.w3.org/2000/svg">
<path d="M5 40.924V38.846C6.036 38.718 6.864 38.378 7.484 37.826C8.10533 37.2753 9.19533 37 10.754 37C12.3127 37 13.468 37.3333 14.22 38C14.972 38.6667 16.0247 39 17.378 39C18.7313 39 19.7833 38.6667 20.534 38C21.2847 37.3333 22.44 37 24 37C25.56 37 26.728 37.3333 27.504 38C28.28 38.6667 29.3453 39 30.7 39C32.0547 39 33.0947 38.6667 33.82 38C34.5453 37.3333 35.6873 37 37.246 37C38.8047 37 39.8947 37.276 40.516 37.828C41.1373 38.38 41.9653 38.7193 43 38.846V40.924C41.8027 40.7693 40.8573 40.41 40.164 39.846C39.4707 39.282 38.498 39 37.246 39C35.994 39 35.006 39.3333 34.282 40C33.5553 40.6667 32.3613 41 30.7 41C29.0387 41 27.8193 40.6667 27.042 40C26.266 39.3333 25.252 39 24 39C22.748 39 21.7467 39.3333 20.996 40C20.2453 40.6667 19.0387 41 17.376 41C15.7133 41 14.5067 40.6667 13.756 40C13.0067 39.3333 12.006 39 10.754 39C9.502 39 8.52933 39.282 7.836 39.846C7.14267 40.41 6.19733 40.7693 5 40.924ZM5 31.924V29.846C6.036 29.718 6.864 29.378 7.484 28.826C8.10533 28.2753 9.19533 28 10.754 28C12.3127 28 13.47 28.3333 14.226 29C14.982 29.6667 16.0327 30 17.378 30C18.7313 30 19.7833 29.6667 20.534 29C21.2847 28.3333 22.44 28 24 28C25.56 28 26.7153 28.3333 27.466 29C28.2167 29.6667 29.2687 30 30.622 30C31.9753 30 33.0287 29.6667 33.782 29C34.5327 28.3333 35.6873 28 37.246 28C38.8047 28 39.8947 28.276 40.516 28.828C41.1373 29.38 41.9653 29.7193 43 29.846V31.922C41.8027 31.7687 40.8573 31.41 40.164 30.846C39.4707 30.282 38.498 30 37.246 30C35.994 30 35.0113 30.3333 34.298 31C33.5847 31.6667 32.3853 32 30.7 32C29.0307 32 27.8093 31.6667 27.036 31C26.2627 30.3333 25.2507 30 24 30C22.7333 30 21.734 30.3333 21.002 31C20.27 31.6667 19.062 32 17.378 32C15.694 32 14.4813 31.6667 13.74 31C12.9987 30.3333 12.0033 30 10.754 30C9.50467 30 8.532 30.282 7.836 30.846C7.14 31.41 6.19467 31.7693 5 31.924ZM32.86 7.384C34.0307 7.384 35.0287 7.79933 35.854 8.63C36.6807 9.45933 37.094 10.4547 37.094 11.616C37.094 12.7853 36.6807 13.7827 35.854 14.608C35.0273 15.4333 34.03 15.846 32.862 15.846C31.694 15.846 30.696 15.4327 29.868 14.606C29.044 13.782 28.632 12.7853 28.632 11.616C28.632 10.4547 29.044 9.45933 29.868 8.63C30.6947 7.79933 31.6907 7.384 32.86 7.384ZM17.338 23C16.9713 23 16.6493 22.9433 16.372 22.83C16.0947 22.7167 15.8273 22.5527 15.57 22.338L22.028 15.88L18.95 12.804L11.476 9.77V7L20.784 10.692L32.432 22.338C32.172 22.5513 31.904 22.7147 31.628 22.828C31.3507 22.9427 31.0287 23 30.662 23C29.7687 23 28.8887 22.6667 28.022 22C27.1553 21.3333 25.8147 21 24 21C22.1853 21 20.8447 21.3333 19.978 22C19.1113 22.6667 18.2313 23 17.338 23Z" fill="#545454"/>
</svg>
