<svg width="48" height="48" viewBox="0 0 48 48" fill="none" xmlns="http://www.w3.org/2000/svg">
<path d="M37.5 9C37.1022 9 36.7206 8.84196 36.4393 8.56066C36.158 8.27936 36 7.89782 36 7.5C36 7.10218 36.158 6.72064 36.4393 6.43934C36.7206 6.15804 37.1022 6 37.5 6C37.8978 6 38.2794 6.15804 38.5607 6.43934C38.842 6.72064 39 7.10218 39 7.5C39 7.89782 38.842 8.27936 38.5607 8.56066C38.2794 8.84196 37.8978 9 37.5 9ZM24 39C20.8174 39 17.7652 37.7357 15.5147 35.4853C13.2643 33.2348 12 30.1826 12 27C12 23.8174 13.2643 20.7652 15.5147 18.5147C17.7652 16.2643 20.8174 15 24 15C27.1826 15 30.2348 16.2643 32.4853 18.5147C34.7357 20.7652 36 23.8174 36 27C36 30.1826 34.7357 33.2348 32.4853 35.4853C30.2348 37.7357 27.1826 39 24 39ZM9 7.5C9 7.10218 9.15804 6.72064 9.43934 6.43934C9.72064 6.15804 10.1022 6 10.5 6H16.5C16.8978 6 17.2794 6.15804 17.5607 6.43934C17.842 6.72064 18 7.10218 18 7.5C18 7.89782 17.842 8.27936 17.5607 8.56066C17.2794 8.84196 16.8978 9 16.5 9H10.5C10.1022 9 9.72064 8.84196 9.43934 8.56066C9.15804 8.27936 9 7.89782 9 7.5ZM31.5 6C31.8978 6 32.2794 6.15804 32.5607 6.43934C32.842 6.72064 33 7.10218 33 7.5C33 7.89782 32.842 8.27936 32.5607 8.56066C32.2794 8.84196 31.8978 9 31.5 9C31.1022 9 30.7206 8.84196 30.4393 8.56066C30.158 8.27936 30 7.89782 30 7.5C30 7.10218 30.158 6.72064 30.4393 6.43934C30.7206 6.15804 31.1022 6 31.5 6ZM33 24.042C31.5255 24.27 30.4185 25.5045 30.4185 27C30.4185 28.4955 31.5255 29.73 33 29.9565C31.737 33.468 28.302 36.0015 24.2625 36.0015C19.155 36 15 31.9605 15 27C15 22.035 19.155 18 24.2625 18C28.302 18 31.737 20.5305 33 24.042ZM40.5 3H7.5C7.10218 3 6.72064 3.15804 6.43934 3.43934C6.15804 3.72064 6 4.10218 6 4.5V43.5C6 43.8978 6.15804 44.2794 6.43934 44.5607C6.72064 44.842 7.10218 45 7.5 45H40.5C40.8978 45 41.2794 44.842 41.5607 44.5607C41.842 44.2794 42 43.8978 42 43.5V4.5C42 4.10218 41.842 3.72064 41.5607 3.43934C41.2794 3.15804 40.8978 3 40.5 3Z" fill="#545454"/>
</svg>
