<svg width="48" height="48" viewBox="0 0 48 48" fill="none" xmlns="http://www.w3.org/2000/svg">
<path d="M6 28L8 38M8 38L6 44M8 38H13.306C14.714 38 15.046 38.28 15.278 39.672L16 44M42 28L40 38M40 38L42 44M40 38H34.694C33.286 38 32.954 38.28 32.722 39.672L32 44M24 20V44M22 44H26M18 30H30M9.2 14.814C13.34 12.876 17.506 9.8 20.58 6.728C22.398 4.908 23.308 4 24 4C24.692 4 25.6 4.91 27.422 6.728C30.494 9.798 34.66 12.876 38.798 14.814C40.206 15.474 41.066 16.286 41.746 17.87C42.266 19.08 42.032 20 40.614 20H7.386C5.966 20 5.734 19.08 6.254 17.87C6.934 16.286 7.794 15.474 9.2 14.814Z" stroke="#545454" stroke-width="3" stroke-linecap="round" stroke-linejoin="round"/>
</svg>
